<svg xmlns="http://www.w3.org/2000/svg" width="97" height="96.004" viewBox="0 0 97 96.004"><defs><style>.a{fill:#006ba3;}.b{stroke:#fff;}.c{fill:#fff;}</style></defs><g transform="translate(-15.5 -16.496)"><g transform="translate(-396 -208.161)"><path class="a" d="M494.381,230.184,441.373,245a14.365,14.365,0,0,0-9.939,17.649l.33,1.182,7.876,28.179.165.591.165.591a14.364,14.364,0,0,0,17.649,9.939l53.008-14.815a14.365,14.365,0,0,0,9.939-17.649l-.165-.591-.165-.591-7.876-28.179-.331-1.183A14.365,14.365,0,0,0,494.381,230.184Z" transform="translate(-14.469 -5)"/><path class="b" d="M491.57,293H428.43c-9.037,0-16.43,8.076-16.43,17.948v39.741c0,9.871,7.394,17.948,16.43,17.948H491.57c9.037,0,16.43-8.076,16.43-17.948V310.948C508,301.076,500.606,293,491.57,293Z" transform="translate(0 -48.475)"/><g transform="translate(421.32 285.366)"><path class="c" d="M459.441,449.914h-3.975a.635.635,0,0,1-.71-.6l-3.038-17.065q-.085-.6.6-.6h2.953q.652,0,.681.6l1.647,14h.2l2.726-14.084a.547.547,0,0,1,.6-.511h3.18a.554.554,0,0,1,.625.483l2.783,14.112h.227l1.618-13.97a.594.594,0,0,1,.681-.625h2.953q.681,0,.6.625l-3.067,17.037a.606.606,0,0,1-.653.6h-4a.62.62,0,0,1-.681-.6L462.82,436h-.114l-2.584,13.317A.642.642,0,0,1,459.441,449.914Z" transform="translate(-451.709 -429.953)"/><path class="c" d="M558.368,462.227h-.681a4.751,4.751,0,0,1-3.464-1.192A4.587,4.587,0,0,1,553,457.6v-5.224a4.588,4.588,0,0,1,1.221-3.436,4.751,4.751,0,0,1,3.464-1.193h6.559q.624,0,.625.6v13.289q0,.6-.625.6H561.86a.527.527,0,0,1-.6-.6v-.937h-.114a2.155,2.155,0,0,1-1.107,1.15A3.811,3.811,0,0,1,558.368,462.227Zm2.9-5.281v-5.764q0-.312-.341-.312h-2.669a1.732,1.732,0,0,0-1.278.383,1.832,1.832,0,0,0-.369,1.292v4.884a1.832,1.832,0,0,0,.369,1.292,1.733,1.733,0,0,0,1.278.383H559.3Q561.264,459.1,561.264,456.946Z" transform="translate(-529.226 -442.266)"/><path class="c" d="M620.488,444.359h-2.414a.527.527,0,0,1-.6-.6V424.994a.527.527,0,0,1,.6-.6h2.414a.527.527,0,0,1,.6.6v18.769A.527.527,0,0,1,620.488,444.359Z" transform="translate(-578.569 -424.398)"/><path class="c" d="M650.367,444.359h-2.414a.527.527,0,0,1-.6-.6V424.994a.527.527,0,0,1,.6-.6h2.414a.527.527,0,0,1,.6.6v18.769A.527.527,0,0,1,650.367,444.359Z" transform="translate(-601.435 -424.398)"/><path class="c" d="M686.382,462.227h-6.275a4.751,4.751,0,0,1-3.464-1.192,4.586,4.586,0,0,1-1.221-3.436v-5.224a4.587,4.587,0,0,1,1.221-3.436,4.75,4.75,0,0,1,3.464-1.193h2.243a4.753,4.753,0,0,1,3.464,1.193,4.589,4.589,0,0,1,1.221,3.436v3.606a.527.527,0,0,1-.6.6h-7.127q-.341,0-.341.312v.625a1.738,1.738,0,0,0,.383,1.263,1.785,1.785,0,0,0,1.292.383h5.736q.6,0,.6.625v1.874a.611.611,0,0,1-.128.44A.661.661,0,0,1,686.382,462.227Zm-7.07-8.064h3.862a.276.276,0,0,0,.312-.312v-1.363a1.376,1.376,0,0,0-1.646-1.647h-1.193A1.376,1.376,0,0,0,679,452.488v1.363A.276.276,0,0,0,679.312,454.163Z" transform="translate(-622.912 -442.266)"/><path class="c" d="M732.073,439.112h-1.135a.719.719,0,0,1-.469-.114.6.6,0,0,1-.128-.454v-1.959a.527.527,0,0,1,.6-.6h1.135a.276.276,0,0,0,.313-.312v-2.7q0-.6.624-.6H735.4a.527.527,0,0,1,.6.6v2.7c0,.209.114.312.341.312h2.215a.527.527,0,0,1,.6.6v1.959a.611.611,0,0,1-.128.44.663.663,0,0,1-.469.128h-2.215q-.341,0-.341.312V445.7a1.7,1.7,0,0,0,.4,1.264,1.841,1.841,0,0,0,1.306.383h1.136a.527.527,0,0,1,.6.6V449.9a.612.612,0,0,1-.128.44.663.663,0,0,1-.469.128H737.1a4.8,4.8,0,0,1-3.478-1.192,4.517,4.517,0,0,1-1.235-3.407v-6.445A.276.276,0,0,0,732.073,439.112Z" transform="translate(-664.941 -430.509)"/></g></g><g transform="translate(-684.411 -127.465)"><path class="c" d="M724.035,184.912a.156.156,0,0,1,.009-.115.149.149,0,0,1,.083-.075l.445-.166h0l.383-.143h0l.9-.335a.152.152,0,0,0,.078-.22l-.077-.13-.382-.645-2-3.384a.227.227,0,0,0-.146-.106c-.1-.024-2.576-.555-2.576-.555a.153.153,0,0,1-.087-.227l.838-1.384a.733.733,0,0,0-.013-.906,5.745,5.745,0,0,0-1.039-1.034.219.219,0,0,0-.112-.03.23.23,0,0,0-.106.027l-1.442.831a.162.162,0,0,0-.1.181l.021.3a.192.192,0,0,1-.027.125l-.532.778a.154.154,0,0,0,.014.194l.483.53a.153.153,0,0,1-.133.253l-1.719-.224a.227.227,0,0,0-.233.117l-2.589,5.106a.154.154,0,0,0,.092.222l2.768.557a.162.162,0,0,0,.136-.014.167.167,0,0,0,.078-.125l.652-2.8a.076.076,0,0,1,.087-.057.077.077,0,0,1,.061.079l-.271,2.828a.263.263,0,0,1-.174.211l-2.373.724a.211.211,0,0,0-.147.237l.7,4.722a.227.227,0,0,0,.072.129.221.221,0,0,0,.148.057h2.967a.23.23,0,0,0,.166-.079.226.226,0,0,0,.053-.161l-.3-4.812a.154.154,0,0,1,.066-.135.157.157,0,0,1,.145-.015l.918.36a.242.242,0,0,0,.223-.025l.661-.445a.153.153,0,0,1,.147-.011.156.156,0,0,1,.086.108l.09.423.864,4.614a.224.224,0,0,0,.073.125.234.234,0,0,0,.145.055h3.381a.227.227,0,0,0,.182-.1.232.232,0,0,0,.027-.2Zm-.981-.974a.155.155,0,0,1-.087.08l-.834.286a.154.154,0,0,1-.147-.023.152.152,0,0,1-.058-.122v-.011s.034-2.451.035-2.464a.075.075,0,0,1,.143-.028l.949,2.156A.158.158,0,0,1,723.054,183.938Z"/><g transform="translate(729.432 181.027)"><path class="c" d="M977.938,225.162H972.89v-7.5h5.048a2.552,2.552,0,0,1,2.552,2.553v2.394A2.552,2.552,0,0,1,977.938,225.162Zm-3.359-1.688h3.107a1.117,1.117,0,0,0,1.117-1.117v-1.889a1.117,1.117,0,0,0-1.117-1.117h-3.107Z" transform="translate(-952.997 -217.469)"/><path class="c" d="M1078.5,225.162h-2.507a2.552,2.552,0,0,1-2.552-2.553v-4.947h1.688v4.694a1.117,1.117,0,0,0,1.117,1.117h1.889a1.117,1.117,0,0,0,1.117-1.117v-4.694h1.688v5.06A2.44,2.44,0,0,1,1078.5,225.162Z" transform="translate(-1039.813 -217.469)"/><path class="c" d="M911.983,219.352v-1.688h-7.061v7.5h7.061v-1.688H906.61v-1.216H910.8v-1.688H906.61v-1.218Z" transform="translate(-894.312 -217.47)"/><rect class="c" width="1.688" height="7.499" transform="translate(29.715 0.194)"/><path class="c" d="M834.85,216.245l-3.424,2-3.424-2-.77.445v7.248h1.688v-5.2l2.506,1.465,2.506-1.465v5.2h1.688V216.69Z" transform="translate(-827.232 -216.245)"/><path class="c" d="M1152.234,216.245l-3.424,2-3.424-2-.77.445v7.248h1.688v-5.2l2.506,1.465,2.506-1.465v5.2H1153V216.69Z" transform="translate(-1101.27 -216.245)"/></g></g></g></svg>